<mxfile host="app.diagrams.net" modified="2024-06-10T17:34:30.413Z" agent="Mozilla/5.0 (Macintosh; Intel Mac OS X 10_15_7) AppleWebKit/537.36 (KHTML, like Gecko) Chrome/125.0.0.0 Safari/537.36" etag="5fqFd9Km_zJQMf8SZU2V" version="24.2.7" type="device">
  <diagram name="Page-1" id="d_MtF1SWA21jRga40kEw">
    <mxGraphModel dx="1221" dy="653" grid="1" gridSize="10" guides="1" tooltips="1" connect="1" arrows="1" fold="1" page="1" pageScale="1" pageWidth="850" pageHeight="1100" math="0" shadow="0">
      <root>
        <mxCell id="0" />
        <mxCell id="1" parent="0" />
        <mxCell id="UK2jQVc7_0p15qeLfGnY-8" style="edgeStyle=orthogonalEdgeStyle;rounded=0;orthogonalLoop=1;jettySize=auto;html=1;exitX=1;exitY=0.5;exitDx=0;exitDy=0;" edge="1" parent="1" source="UK2jQVc7_0p15qeLfGnY-1" target="UK2jQVc7_0p15qeLfGnY-6">
          <mxGeometry relative="1" as="geometry" />
        </mxCell>
        <mxCell id="UK2jQVc7_0p15qeLfGnY-9" value="PR Bot Changes Image Tags&lt;br&gt;In Each Overrides File" style="edgeLabel;html=1;align=center;verticalAlign=middle;resizable=0;points=[];" vertex="1" connectable="0" parent="UK2jQVc7_0p15qeLfGnY-8">
          <mxGeometry x="-0.075" y="-2" relative="1" as="geometry">
            <mxPoint as="offset" />
          </mxGeometry>
        </mxCell>
        <mxCell id="UK2jQVc7_0p15qeLfGnY-1" value="Manifests&lt;div&gt;Notify PR Bot&lt;/div&gt;" style="rounded=1;whiteSpace=wrap;html=1;" vertex="1" parent="1">
          <mxGeometry x="80" y="70" width="90" height="40" as="geometry" />
        </mxCell>
        <mxCell id="UK2jQVc7_0p15qeLfGnY-10" style="edgeStyle=orthogonalEdgeStyle;rounded=0;orthogonalLoop=1;jettySize=auto;html=1;entryX=0;entryY=0.5;entryDx=0;entryDy=0;" edge="1" parent="1" source="UK2jQVc7_0p15qeLfGnY-6" target="UK2jQVc7_0p15qeLfGnY-7">
          <mxGeometry relative="1" as="geometry" />
        </mxCell>
        <mxCell id="UK2jQVc7_0p15qeLfGnY-11" value="Global Helmfile Apply" style="edgeLabel;html=1;align=center;verticalAlign=middle;resizable=0;points=[];" vertex="1" connectable="0" parent="UK2jQVc7_0p15qeLfGnY-10">
          <mxGeometry x="0.075" y="-2" relative="1" as="geometry">
            <mxPoint as="offset" />
          </mxGeometry>
        </mxCell>
        <mxCell id="UK2jQVc7_0p15qeLfGnY-6" value="PR To Manifests" style="rounded=1;whiteSpace=wrap;html=1;" vertex="1" parent="1">
          <mxGeometry x="410" y="70" width="90" height="40" as="geometry" />
        </mxCell>
        <mxCell id="UK2jQVc7_0p15qeLfGnY-7" value="Helmfile&amp;nbsp;&lt;div&gt;Merge To Main&lt;/div&gt;" style="rounded=1;whiteSpace=wrap;html=1;" vertex="1" parent="1">
          <mxGeometry x="660" y="70" width="90" height="40" as="geometry" />
        </mxCell>
      </root>
    </mxGraphModel>
  </diagram>
</mxfile>
